<?xml version="1.0" encoding="utf-8"?>
<!-- Generator: Adobe Illustrator 22.0.0, SVG Export Plug-In . SVG Version: 6.00 Build 0)  -->
<svg version="1.1" id="wave" xmlns="http://www.w3.org/2000/svg" xmlns:xlink="http://www.w3.org/1999/xlink" x="0px" y="0px"
	 viewBox="0 0 1440 150" style="enable-background:new 0 0 1440 150;" xml:space="preserve">
<style type="text/css">
	.st0{fill:#FDF6F5;}
</style>
<path class="st0" d="M-4,69c2-3,4-6,6-9c117.7-9.3,280.1-18.6,474-18.3C672.8,42,715.7,52.7,956,55c208.7,2,173.9-5.8,486-6
	c97.9-0.1,223.3,0.9,474,2.7c54.8,0.4,91,0.5,138.3,1.3c111.4,1.8,179.8,4.9,341.7,7c160,2,320-2,480-15s320-37,480-38.3
	C3516,5,3676,25,3836,33.3c160,8.7,320,4.7,480-5C4476,18,4636,2,4796,8.3C4956,15,5116,45,5276,55s320,0,480-11.7
	C5916,32,6076,18,6236,20s320,18,480,15s320-27,480-25s320,28,480,38.3c160,9.7,320,3.7,480-3.3s320-13,480-13.3
	c160,0.3,320,6.3,480,10c160,3.3,320,3.3,480-6.7s320-30,480-35s320,5,480,18.3c160,13.7,320,29.7,480,25c160-5.3,320-31.3,400-45
	l80-13.3V85h-80c-80,0-240,0-400,0s-320,0-480,0s-320,0-480,0s-320,0-480,0s-320,0-480,0s-320,0-480,0s-320,0-480,0s-320,0-480,0
	s-320,0-480,0s-320,0-480,0s-320,0-480,0s-320,0-480,0s-320,0-480,0s-320,0-480,0s-320,0-480,0s-320,0-480,0s-320,0-480,0
	s-320,0-480,0s-320,0-480,0c-357.5,0-376.4-31.1-480,0c-198.8,59.6-184,159.4-386,224c-111.1,35.5-118.5,3.4-497,10
	c-163.7,2.9-175.2,12.6-441,29c-138.6,8.6-341,18.6-591,22c-2-33-4-66-6-99C-4.7,203.7-4.3,136.3-4,69z"/>
</svg>
