<?xml version="1.0" encoding="utf-8"?>
<!-- Generator: Adobe Illustrator 22.0.0, SVG Export Plug-In . SVG Version: 6.00 Build 0)  -->
<svg version="1.1" id="wave" xmlns="http://www.w3.org/2000/svg" xmlns:xlink="http://www.w3.org/1999/xlink" x="0px" y="0px"
	 viewBox="0 0 1440 150" style="enable-background:new 0 0 1440 150;" xml:space="preserve">
<style type="text/css">
	.st0{fill:#FDF6F5;}
</style>
<path class="st0" d="M-4,32c2-3,4-6,6-9C119.7,13.7,282.1,4.4,476,4.7C672.8,5,715.7,15.7,956,18c208.7,2,173.9-5.8,486-6
	c97.9-0.1,223.3,0.9,474,2.7c54.8,0.4,91,0.5,138.3,1.3c111.4,1.8,179.8,4.9,341.7,7c160,2,320-2,480-15s320-37,480-38.3
	C3516-32,3676-12,3836-3.7c160,8.7,320,4.7,480-5c160-10.3,320-26.3,480-20C4956-22,5116,8,5276,18s320,0,480-11.7
	C5916-5,6076-19,6236-17s320,18,480,15s320-27,480-25s320,28,480,38.3C7836,21,7996,15,8156,8s320-13,480-13.3
	c160,0.3,320,6.3,480,10C9276,8,9436,8,9596-2s320-30,480-35s320,5,480,18.3c160,13.7,320,29.7,480,25c160-5.3,320-31.3,400-45
	l80-13.3V48h-80c-80,0-240,0-400,0s-320,0-480,0s-320,0-480,0s-320,0-480,0s-320,0-480,0s-320,0-480,0s-320,0-480,0s-320,0-480,0
	s-320,0-480,0s-320,0-480,0s-320,0-480,0s-320,0-480,0s-320,0-480,0s-320,0-480,0s-320,0-480,0s-320,0-480,0s-320,0-480,0
	s-320,0-480,0s-320,0-480,0c-357.5,0-376.4-31.1-480,0c-198.8,59.6-184,159.4-386,224c-111.1,35.5-118.5,3.4-497,10
	c-163.7,2.9-175.2,12.6-441,29c-138.6,8.6-341,18.6-591,22c-2-33-4-66-6-99C-4.7,166.7-4.3,99.3-4,32z"/>
</svg>
