<?xml version="1.0" encoding="utf-8"?>
<!-- Generator: Adobe Illustrator 22.0.0, SVG Export Plug-In . SVG Version: 6.00 Build 0)  -->
<svg version="1.1" id="wave" xmlns="http://www.w3.org/2000/svg" xmlns:xlink="http://www.w3.org/1999/xlink" x="0px" y="0px"
	 viewBox="0 0 1440 110" style="enable-background:new 0 0 1440 110;" xml:space="preserve">
<style type="text/css">
	.st0{fill:#FDF6F5;}
</style>
<path class="st0" d="M-4,30c2-3,4-6,6-9C119.7,11.7,282.1,2.4,476,2.7C672.8,3,715.7,13.7,956,16c208.7,2,173.9-5.8,486-6
	c97.9-0.1,223.3,0.9,474,2.7c54.8,0.4,91,0.5,138.3,1.3c111.4,1.8,179.8,4.9,341.7,7c160,2,320-2,480-15s320-37,480-38.3
	C3516-34,3676-14,3836-5.7c160,8.7,320,4.7,480-5c160-10.3,320-26.3,480-20C4956-24,5116,6,5276,16s320,0,480-11.7
	C5916-7,6076-21,6236-19s320,18,480,15s320-27,480-25s320,28,480,38.3C7836,19,7996,13,8156,6s320-13,480-13.3
	c160,0.3,320,6.3,480,10C9276,6,9436,6,9596-4s320-30,480-35s320,5,480,18.3c160,13.7,320,29.7,480,25c160-5.3,320-31.3,400-45
	l80-13.3V46h-80c-80,0-240,0-400,0s-320,0-480,0s-320,0-480,0s-320,0-480,0s-320,0-480,0s-320,0-480,0s-320,0-480,0s-320,0-480,0
	s-320,0-480,0s-320,0-480,0s-320,0-480,0s-320,0-480,0s-320,0-480,0s-320,0-480,0s-320,0-480,0s-320,0-480,0s-320,0-480,0
	s-320,0-480,0s-320,0-480,0c-357.5,0-376.4-31.1-480,0c-198.8,59.6-184,159.4-386,224c-111.1,35.5-118.5,3.4-497,10
	c-163.7,2.9-175.2,12.6-441,29c-138.6,8.6-341,18.6-591,22c-2-33-4-66-6-99C-4.7,164.7-4.3,97.3-4,30z"/>
</svg>
