<?xml version="1.0" encoding="utf-8"?>
<!-- Generator: Adobe Illustrator 22.0.0, SVG Export Plug-In . SVG Version: 6.00 Build 0)  -->
<svg version="1.1" xmlns="http://www.w3.org/2000/svg" xmlns:xlink="http://www.w3.org/1999/xlink" x="0px" y="0px"
	 viewBox="0 0 1440 56" style="enable-background:new 0 0 1440 56;" xml:space="preserve">
<style type="text/css">
	.st0{display:none;}
	.st1{display:inline;fill:#7A3131;}
	.st2{display:inline;fill:#FFFFFF;}
	.st3{fill:#FFFFFF;}
	.st4{fill:#08441C;}
</style>
<g id="wave" class="st0">
	<path class="st1" d="M-6,51l80-8.3c80-8.7,240-24.7,400-25C661.2,17.3,753.1,33.5,954,41c55,2.1,265.7-1.4,477-5.3
		c213.6-3.9,427.8-8.3,483-8c31.9,0.2,83.1,0.4,138.3,1.3c111.4,1.8,179.8,4.9,341.7,7c160,2,320-2,480-15s320-37,480-38.3
		C3514-19,3674,1,3834,9.3c160,8.7,320,4.7,480-5c160-10.3,320-26.3,480-20C4954-9,5114,21,5274,31s320,0,480-11.7
		C5914,8,6074-6,6234-4s320,18,480,15s320-27,480-25s320,28,480,38.3c160,9.7,320,3.7,480-3.3s320-13,480-13.3
		c160,0.3,320,6.3,480,10c160,3.3,320,3.3,480-6.7s320-30,480-35s320,5,480,18.3c160,13.7,320,29.7,480,25c160-5.3,320-31.3,400-45
		l80-13.3V61h-80c-80,0-240,0-400,0s-320,0-480,0s-320,0-480,0s-320,0-480,0s-320,0-480,0s-320,0-480,0s-320,0-480,0s-320,0-480,0
		s-320,0-480,0s-320,0-480,0s-320,0-480,0s-320,0-480,0s-320,0-480,0s-320,0-480,0s-320,0-480,0s-320,0-480,0s-320,0-480,0
		s-320,0-480,0s-320,0-480,0s-320,0-480,0c-80.4,0-282,0-483,0c-199,0-397.4,0-477,0c-160,0-320,0-480,0s-320,0-400,0H-6V51z"/>
</g>
<g id="Layer_2">
	<path class="st3" d="M1440,0c0,0-18.3,0-55,0c-25.7,0-51.3,0-77,0c-58,0-116,0-174,0c-83,0-166,0-249,0c-63.3,0-126.7,0-190,0
		c-22,0-44,0-66,0c-53.7,0-107.3,0-161,0C347,0,226,0,105,0C104.2,0,0,0,0,0c0,0,0,0,0,0.1c-5.9,18.7,0,50.3,0,50.3
		c0,0,22-2.3,31.8-3.3c34.7-3.6,43.5-4.6,56.3-5.9c24.2-2.5,36.3-3.8,51.8-5.3c35.2-3.4,62.7-5.7,74.5-6.6
		c33.4-2.7,58.7-4.3,65.4-4.7c37.2-2.4,65-3.6,71.5-3.9c14.5-0.6,38.6-1.7,70.5-2.4c20.4-0.4,48.7-0.8,82.5-0.5
		c30.5,0.2,56.2,0.9,75.2,1.6c31.4,1.1,54.9,2.4,73,3.4c22.5,1.3,34,2.1,94.3,6.3c44.5,3.1,66.7,4.6,72.2,5
		c69.6,4.5,104,5.9,125.2,6.6c9.8,0.3,24,0.8,42.3,0.9c8.9,0.1,19.8,0.1,24.8,0.1c9.4,0,16.5,0,24-0.1c12.1-0.1,18.2-0.1,26.2-0.2
		c9.4-0.1,13.7-0.2,24.8-0.3c7.5-0.1,7.7,0,18.9-0.1c8-0.1,14.3-0.1,21.1-0.2c9.3-0.1,16.3-0.2,18.8-0.2
		c60.3-0.8,112.3-1.7,112.3-1.7c16.3-0.3,42.4-0.7,47.7-0.8c10.1-0.2,34.5-0.6,47.5-0.8c6.6-0.1,32.6-0.6,39.5-0.7
		c9.9-0.2,22.1-0.4,22.2-0.4c18.3-0.3,17.7-0.4,18.8-0.3c9,0.1,18.1-1.2,27-0.2c2.6,0.3,4.2,0.6,5.3-0.4c3.1-3-1.8-13.2-5.5-18.8
		C1457,12.1,1451.2,5.1,1440,0z"/>
</g>
</svg>
