<?xml version="1.0" encoding="utf-8"?>
<!-- Generator: Adobe Illustrator 22.0.0, SVG Export Plug-In . SVG Version: 6.00 Build 0)  -->
<svg version="1.1" xmlns="http://www.w3.org/2000/svg" xmlns:xlink="http://www.w3.org/1999/xlink" x="0px" y="0px"
	 viewBox="0 0 1440 80" style="enable-background:new 0 0 1440 80;" xml:space="preserve">
<style type="text/css">
	.st0{display:none;}
	.st1{display:inline;fill:#F40B0B;}
	.st2{display:inline;fill:#FFFFFF;}
	.st3{fill:#FDF6F5;}
</style>
<g id="wave" class="st0">
	<path class="st1" d="M-6,57c2-3,4-6,6-9c117.7-9.3,280.1-18.6,474-18.3C670.8,30,713.7,40.7,954,43c208.7,2,173.9-5.8,486-6
		c97.9-0.1,223.3,0.9,474,2.7c54.8,0.4,91,0.5,138.3,1.3c111.4,1.8,179.8,4.9,341.7,7c160,2,320-2,480-15s320-37,480-38.3
		C3514-7,3674,13,3834,21.3c160,8.7,320,4.7,480-5C4474,6,4634-10,4794-3.7C4954,3,5114,33,5274,43s320,0,480-11.7
		C5914,20,6074,6,6234,8s320,18,480,15s320-27,480-25s320,28,480,38.3c160,9.7,320,3.7,480-3.3s320-13,480-13.3
		c160,0.3,320,6.3,480,10c160,3.3,320,3.3,480-6.7s320-30,480-35s320,5,480,18.3c160,13.7,320,29.7,480,25c160-5.3,320-31.3,400-45
		l80-13.3V73h-80c-80,0-240,0-400,0s-320,0-480,0s-320,0-480,0s-320,0-480,0s-320,0-480,0s-320,0-480,0s-320,0-480,0s-320,0-480,0
		s-320,0-480,0s-320,0-480,0s-320,0-480,0s-320,0-480,0s-320,0-480,0s-320,0-480,0s-320,0-480,0s-320,0-480,0s-320,0-480,0
		s-320,0-480,0s-320,0-480,0s-320,0-480,0c-80.4,0-282,0-483,0c-199,0-397.4,0-477,0c-160,0-320,0-480,0s-320,0-400,0H-6
		C-6,67.7-6,62.3-6,57z"/>
</g>
<g id="Layer_2">
	<path class="st3" d="M2.1,30c-24-44.6-61.5-129.1-32.3-206.7c133.7-356,1502.8-126.4,1511,16c1.4,24.7-36,81.3-38.7,190.7
		c-0.3,11.6-0.1,20.8,0,25l-62.3,0.2l-118,1.2l-102.7,2.5l-110.6,2.4L956.1,61l-96-1.6l-138-4.9l-214.7-6.8l-93.7,0.1l-129.7,2.6
		l-127,5.3l-70.6,4.1L2.1,66V30z"/>
</g>
</svg>
