<?xml version="1.0" standalone="no"?>
<svg xmlns:xlink="http://www.w3.org/1999/xlink" id="wave" style="transform:rotate(180deg); transition: 0.3s" viewBox="0 0 1440 100" version="1.1" xmlns="http://www.w3.org/2000/svg"><defs><linearGradient id="sw-gradient-0" x1="0" x2="0" y1="1" y2="0"><stop stop-color="rgba(255, 255, 255, 1)" offset="0%"/><stop stop-color="rgba(255, 255, 255, 1)" offset="100%"/></linearGradient></defs><path style="transform:translate(0, 0px); opacity:1" fill="url(#sw-gradient-0)" d="M0,40L80,41.7C160,43,320,47,480,45C640,43,800,37,960,35C1120,33,1280,37,1440,45C1600,53,1760,67,1920,73.3C2080,80,2240,80,2400,73.3C2560,67,2720,53,2880,40C3040,27,3200,13,3360,10C3520,7,3680,13,3840,21.7C4000,30,4160,40,4320,41.7C4480,43,4640,37,4800,28.3C4960,20,5120,10,5280,10C5440,10,5600,20,5760,28.3C5920,37,6080,43,6240,40C6400,37,6560,23,6720,30C6880,37,7040,63,7200,73.3C7360,83,7520,77,7680,75C7840,73,8000,77,8160,65C8320,53,8480,27,8640,23.3C8800,20,8960,40,9120,48.3C9280,57,9440,53,9600,48.3C9760,43,9920,37,10080,31.7C10240,27,10400,23,10560,25C10720,27,10880,33,11040,33.3C11200,33,11360,27,11440,23.3L11520,20L11520,100L11440,100C11360,100,11200,100,11040,100C10880,100,10720,100,10560,100C10400,100,10240,100,10080,100C9920,100,9760,100,9600,100C9440,100,9280,100,9120,100C8960,100,8800,100,8640,100C8480,100,8320,100,8160,100C8000,100,7840,100,7680,100C7520,100,7360,100,7200,100C7040,100,6880,100,6720,100C6560,100,6400,100,6240,100C6080,100,5920,100,5760,100C5600,100,5440,100,5280,100C5120,100,4960,100,4800,100C4640,100,4480,100,4320,100C4160,100,4000,100,3840,100C3680,100,3520,100,3360,100C3200,100,3040,100,2880,100C2720,100,2560,100,2400,100C2240,100,2080,100,1920,100C1760,100,1600,100,1440,100C1280,100,1120,100,960,100C800,100,640,100,480,100C320,100,160,100,80,100L0,100Z"/></svg>