<?xml version="1.0" encoding="utf-8"?>
<!-- Generator: Adobe Illustrator 22.0.0, SVG Export Plug-In . SVG Version: 6.00 Build 0)  -->
<svg version="1.1" id="Layer_1" xmlns="http://www.w3.org/2000/svg" xmlns:xlink="http://www.w3.org/1999/xlink" x="0px" y="0px"
	 viewBox="0 0 1440 100" style="enable-background:new 0 0 1440 100;" xml:space="preserve">
<style type="text/css">
	.st0{display:none;}
	.st1{display:inline;fill:#F40B0B;}
	.st2{fill:#FFF7F5;}
</style>
<g id="wave" class="st0">
	<path class="st1" d="M-6,67c2-3,4-6,6-9c117.7-9.3,280.1-18.6,474-18.3C670.8,40,713.7,50.7,954,53c208.7,2,173.9-5.8,486-6
		c97.9-0.1,223.3,0.9,474,2.7c54.8,0.4,91,0.5,138.3,1.3c111.4,1.8,179.8,4.9,341.7,7c160,2,320-2,480-15s320-37,480-38.3
		C3514,3,3674,23,3834,31.3c160,8.7,320,4.7,480-5C4474,16,4634,0,4794,6.3C4954,13,5114,43,5274,53s320,0,480-11.7
		C5914,30,6074,16,6234,18s320,18,480,15s320-27,480-25s320,28,480,38.3c160,9.7,320,3.7,480-3.3s320-13,480-13.3
		c160,0.3,320,6.3,480,10c160,3.3,320,3.3,480-6.7s320-30,480-35s320,5,480,18.3c160,13.7,320,29.7,480,25c160-5.3,320-31.3,400-45
		l80-13.3V83h-80c-80,0-240,0-400,0s-320,0-480,0s-320,0-480,0s-320,0-480,0s-320,0-480,0s-320,0-480,0s-320,0-480,0s-320,0-480,0
		s-320,0-480,0s-320,0-480,0s-320,0-480,0s-320,0-480,0s-320,0-480,0s-320,0-480,0s-320,0-480,0s-320,0-480,0s-320,0-480,0
		s-320,0-480,0s-320,0-480,0s-320,0-480,0c-80.4,0-282,0-483,0c-199,0-397.4,0-477,0c-160,0-320,0-480,0s-320,0-400,0H-6
		C-6,77.7-6,72.3-6,67z"/>
</g>
<g id="Layer_2_1_">
	<path class="st2" d="M0,61.7c0-2,0-27,0-29C0,2.5,0-25.5,0-27.7c479.9,0.4,959.8,0.9,1439.7,1.3l0,0c0.3,26.9,0.3,46.1,0.3,59
		c0,0.2,0,20.7,0,29.3s0,17.1,0,25.7c-20.1,0.1-40.1,0.1-60.2,0.2l-118,1.2l-102.7,2.5L1048.5,94l-92.4-0.3l-96-1.6l-138-4.9
		l-214.7-6.8l-93.7,0.1L284,83.1l-127,5.3l-70.6,4.1c-28.8,2-57.6,4.1-86.4,6.2C0,86.3,0,74,0,61.7z"/>
</g>
</svg>
