<?xml version="1.0" encoding="utf-8"?>
<!-- Generator: Adobe Illustrator 22.0.0, SVG Export Plug-In . SVG Version: 6.00 Build 0)  -->
<svg version="1.1" id="wave" xmlns="http://www.w3.org/2000/svg" xmlns:xlink="http://www.w3.org/1999/xlink" x="0px" y="0px"
	 viewBox="0 0 1440 56" style="enable-background:new 0 0 1440 56;" xml:space="preserve">
<style type="text/css">
	.st0{fill:#FFFFFF;}
</style>
<path class="st0" d="M-6,45c2-3,4-6,6-9c117.7-9.3,280.1-18.6,474-18.3C670.8,18,713.7,28.7,954,31c208.7,2,173.9-5.8,486-6
	c97.9-0.1,223.3,0.9,474,2.7c54.8,0.4,91,0.5,138.3,1.3c111.4,1.8,179.8,4.9,341.7,7c160,2,320-2,480-15s320-37,480-38.3
	C3514-19,3674,1,3834,9.3c160,8.7,320,4.7,480-5c160-10.3,320-26.3,480-20C4954-9,5114,21,5274,31s320,0,480-11.7
	C5914,8,6074-6,6234-4s320,18,480,15s320-27,480-25s320,28,480,38.3c160,9.7,320,3.7,480-3.3s320-13,480-13.3
	c160,0.3,320,6.3,480,10c160,3.3,320,3.3,480-6.7s320-30,480-35s320,5,480,18.3c160,13.7,320,29.7,480,25c160-5.3,320-31.3,400-45
	l80-13.3V61h-80c-80,0-240,0-400,0s-320,0-480,0s-320,0-480,0s-320,0-480,0s-320,0-480,0s-320,0-480,0s-320,0-480,0s-320,0-480,0
	s-320,0-480,0s-320,0-480,0s-320,0-480,0s-320,0-480,0s-320,0-480,0s-320,0-480,0s-320,0-480,0s-320,0-480,0s-320,0-480,0
	s-320,0-480,0s-320,0-480,0s-320,0-480,0c-80.4,0-282,0-483,0c-199,0-397.4,0-477,0c-160,0-320,0-480,0s-320,0-400,0H-6
	C-6,55.7-6,50.3-6,45z"/>
</svg>
