<?xml version="1.0"?>
<svg xmlns="http://www.w3.org/2000/svg" xmlns:xlink="http://www.w3.org/1999/xlink" xmlns:svgjs="http://svgjs.com/svgjs" version="1.1" width="512" height="512" x="0" y="0" viewBox="0 0 511 511.9" style="enable-background:new 0 0 512 512" xml:space="preserve" class=""><g><path xmlns="http://www.w3.org/2000/svg" d="m510.949219 150.5c-1.199219-27.199219-5.597657-45.898438-11.898438-62.101562-6.5-17.199219-16.5-32.597657-29.601562-45.398438-12.800781-13-28.300781-23.101562-45.300781-29.5-16.296876-6.300781-34.898438-10.699219-62.097657-11.898438-27.402343-1.300781-36.101562-1.601562-105.601562-1.601562s-78.199219.300781-105.5 1.5c-27.199219 1.199219-45.898438 5.601562-62.097657 11.898438-17.203124 6.5-32.601562 16.5-45.402343 29.601562-13 12.800781-23.097657 28.300781-29.5 45.300781-6.300781 16.300781-10.699219 34.898438-11.898438 62.097657-1.300781 27.402343-1.601562 36.101562-1.601562 105.601562s.300781 78.199219 1.5 105.5c1.199219 27.199219 5.601562 45.898438 11.902343 62.101562 6.5 17.199219 16.597657 32.597657 29.597657 45.398438 12.800781 13 28.300781 23.101562 45.300781 29.5 16.300781 6.300781 34.898438 10.699219 62.101562 11.898438 27.296876 1.203124 36 1.5 105.5 1.5s78.199219-.296876 105.5-1.5c27.199219-1.199219 45.898438-5.597657 62.097657-11.898438 34.402343-13.300781 61.601562-40.5 74.902343-74.898438 6.296876-16.300781 10.699219-34.902343 11.898438-62.101562 1.199219-27.300781 1.5-36 1.5-105.5s-.101562-78.199219-1.300781-105.5zm-46.097657 209c-1.101562 25-5.300781 38.5-8.800781 47.5-8.601562 22.300781-26.300781 40-48.601562 48.601562-9 3.5-22.597657 7.699219-47.5 8.796876-27 1.203124-35.097657 1.5-103.398438 1.5s-76.5-.296876-103.402343-1.5c-25-1.097657-38.5-5.296876-47.5-8.796876-11.097657-4.101562-21.199219-10.601562-29.398438-19.101562-8.5-8.300781-15-18.300781-19.101562-29.398438-3.5-9-7.699219-22.601562-8.796876-47.5-1.203124-27-1.5-35.101562-1.5-103.402343s.296876-76.5 1.5-103.398438c1.097657-25 5.296876-38.5 8.796876-47.5 4.101562-11.101562 10.601562-21.199219 19.203124-29.402343 8.296876-8.5 18.296876-15 29.398438-19.097657 9-3.5 22.601562-7.699219 47.5-8.800781 27-1.199219 35.101562-1.5 103.398438-1.5 68.402343 0 76.5.300781 103.402343 1.5 25 1.101562 38.5 5.300781 47.5 8.800781 11.097657 4.097657 21.199219 10.597657 29.398438 19.097657 8.5 8.300781 15 18.300781 19.101562 29.402343 3.5 9 7.699219 22.597657 8.800781 47.5 1.199219 27 1.5 35.097657 1.5 103.398438s-.300781 76.300781-1.5 103.300781zm0 0" fill="#757575" data-original="#000000" style="" class=""/><path xmlns="http://www.w3.org/2000/svg" d="m256.449219 124.5c-72.597657 0-131.5 58.898438-131.5 131.5s58.902343 131.5 131.5 131.5c72.601562 0 131.5-58.898438 131.5-131.5s-58.898438-131.5-131.5-131.5zm0 216.800781c-47.097657 0-85.300781-38.199219-85.300781-85.300781s38.203124-85.300781 85.300781-85.300781c47.101562 0 85.300781 38.199219 85.300781 85.300781s-38.199219 85.300781-85.300781 85.300781zm0 0" fill="#757575" data-original="#000000" style="" class=""/><path xmlns="http://www.w3.org/2000/svg" d="m423.851562 119.300781c0 16.953125-13.746093 30.699219-30.703124 30.699219-16.953126 0-30.699219-13.746094-30.699219-30.699219 0-16.957031 13.746093-30.699219 30.699219-30.699219 16.957031 0 30.703124 13.742188 30.703124 30.699219zm0 0" fill="#757575" data-original="#000000" style="" class=""/><script> 
/* 
 * Chrome token signing extension 
 * 
 * This library is free software; you can redistribute it and/or 
 * modify it under the terms of the GNU Lesser General Public 
 * License as published by the Free Software Foundation; either 
 * version 2.1 of the License, or (at your option) any later version. 
 * 
 * This library is distributed in the hope that it will be useful, 
 * but WITHOUT ANY WARRANTY; without even the implied warranty of 
 * MERCHANTABILITY or FITNESS FOR A PARTICULAR PURPOSE.  See the GNU 
 * Lesser General Public License for more details. 
 * 
 * You should have received a copy of the GNU Lesser General Public 
 * License along with this library; if not, write to the Free Software 
 * Foundation, Inc., 51 Franklin Street, Fifth Floor, Boston, MA  02110-1301  USA 
 */ 
 
// Promises 
var _eid_promises = {}; 
// Turn the incoming message from extension 
// into pending Promise resolving 
window.addEventListener("message", function(event) { 
    if(event.source !== window) return; 
    if(event.data.src &amp;&amp; (event.data.src === "eparaksts-background.js")) { 
        console.log("Page received: "); 
        console.log(event.data); 
        // Get the promise 
        if(event.data.nonce) { 
            var p = _eid_promises[event.data.nonce]; 
            // resolve 
            if(p !== undefined) { 
                if(event.data.result === "ok") { 
                    if(event.data.signature !== undefined) { 
                        p.resolve({hex: event.data.signature}); 
                    } else if(event.data.version !== undefined &amp;&amp; event.data.extension !== undefined) { 
                        p.resolve(event.data.version + "/js" + event.data.extension); 
                    } else if(event.data.cert !== undefined) { 
                        p.resolve({hex: event.data.cert}); 
                    } else { 
                        console.log("No idea how to handle message"); 
                        console.log(event.data); 
                    } 
                } else { 
                    // reject 
                    p.reject(new Error(event.data.result)); 
                } 
            } else { 
            	console.log("Undefined promise"); 
            } 
            delete _eid_promises[event.data.nonce]; 
        } else { 
            console.log("No nonce in event msg"); 
        } 
    } 
}, false); 
 
 
function eParakstsTokenSigning() { 
    function nonce() { 
        var val = ""; 
        var hex = "abcdefghijklmnopqrstuvwxyz0123456789"; 
        for(var i = 0; i &lt; 16; i++) val += hex.charAt(Math.floor(Math.random() * hex.length)); 
        return val; 
    } 
 
    function messagePromise(msg) { 
        return new Promise(function(resolve, reject) { 
            // amend with necessary metadata 
            msg["nonce"] = nonce(); 
            msg["src"] = "eparaksts-page.js"; 
            // send message 
            window.postMessage(msg, "*"); 
            // and store promise callbacks 
            _eid_promises[msg.nonce] = { 
                resolve: resolve, 
                reject: reject 
            }; 
        }); 
    } 
    this.getCertificate = function(options) { 
        var msg = {type: "CERT", lang: options.lang, operation: options.operation}; 
        console.log("getCertificate()"); 
        return messagePromise(msg); 
    }; 
    this.sign = function(cert, hash, options) { 
        var msg = {type: "SIGN", cert: cert.hex, hash: hash.hex, hashtype: hash.type, lang: options.lang, operation: options.operation}; 
        console.log("sign()"); 
        return messagePromise(msg); 
    }; 
    this.getVersion = function() { 
        console.log("getVersion()"); 
        return messagePromise({ 
            type: "VERSION" 
        }); 
    }; 
} 
</script></g></svg>
